<mxfile host="65bd71144e">
    <diagram id="dc7JPIxPHXAhDJlspPJZ" name="ページ1">
        <mxGraphModel dx="1156" dy="829" grid="1" gridSize="10" guides="1" tooltips="1" connect="1" arrows="1" fold="1" page="1" pageScale="1" pageWidth="827" pageHeight="1169" background="#ffffff" math="0" shadow="0">
            <root>
                <mxCell id="0"/>
                <mxCell id="1" parent="0"/>
                <mxCell id="34" value="" style="edgeStyle=none;html=1;" parent="1" source="2" target="11" edge="1">
                    <mxGeometry relative="1" as="geometry">
                        <Array as="points"/>
                    </mxGeometry>
                </mxCell>
                <mxCell id="38" value="Commit &amp;amp; push to main" style="edgeLabel;html=1;align=center;verticalAlign=top;resizable=0;points=[];horizontal=1;fontSize=12;" parent="34" vertex="1" connectable="0">
                    <mxGeometry x="-0.1242" y="-4" relative="1" as="geometry">
                        <mxPoint as="offset"/>
                    </mxGeometry>
                </mxCell>
                <mxCell id="2" value="GitHub" style="dashed=0;outlineConnect=0;html=1;align=center;labelPosition=center;verticalLabelPosition=bottom;verticalAlign=top;shape=mxgraph.weblogos.github" parent="1" vertex="1">
                    <mxGeometry x="70" y="560" width="60" height="61" as="geometry"/>
                </mxCell>
                <mxCell id="5" value="AWS Cloud" style="points=[[0,0],[0.25,0],[0.5,0],[0.75,0],[1,0],[1,0.25],[1,0.5],[1,0.75],[1,1],[0.75,1],[0.5,1],[0.25,1],[0,1],[0,0.75],[0,0.5],[0,0.25]];outlineConnect=0;gradientColor=none;html=1;whiteSpace=wrap;fontSize=12;fontStyle=0;container=1;pointerEvents=0;collapsible=0;recursiveResize=0;shape=mxgraph.aws4.group;grIcon=mxgraph.aws4.group_aws_cloud_alt;strokeColor=#232F3E;fillColor=none;verticalAlign=top;align=left;spacingLeft=30;fontColor=#232F3E;dashed=0;" parent="1" vertex="1">
                    <mxGeometry x="270" y="200" width="1070" height="969" as="geometry"/>
                </mxCell>
                <mxCell id="4" value="" style="shape=image;verticalLabelPosition=bottom;labelBackgroundColor=default;verticalAlign=top;aspect=fixed;imageAspect=0;image=data:image/svg+xml,PHN2ZyB4bWxuczp4bGluaz0iaHR0cDovL3d3dy53My5vcmcvMTk5OS94bGluayIgeG1sbnM9Imh0dHA6Ly93d3cudzMub3JnLzIwMDAvc3ZnIiBwcmVzZXJ2ZUFzcGVjdFJhdGlvPSJ4TWlkWU1pZCIgdmVyc2lvbj0iMS4xIiB2aWV3Qm94PSIwIDAgNTExLjk5NzU1ODU5Mzc1IDEyMi44NjQ2Njk3OTk4MDQ2OSIgaGVpZ2h0PSIxOTEuOTc2MDQ2NTYyMTk0ODIiIHdpZHRoPSI3OTkuOTk2MTg1MzAyNzM0NCI+CiAgICA8Zz4KICAgICAgICA8cGF0aCBmaWxsPSIjMDAwMDAwIiBkPSJNMjA3Ljc4NDYzNyw0NS4zOTg0OTYgQzIyMy4wNjA4MTEsNDUuMzk4NDk2IDIyNi40ODA1NDQsNTQuMzA2MTg0NyAyMjYuNDgwNTQ0LDY0LjU4NTg2MjIgTDIyNi40ODA1NDQsNzQuODI0NTg0OCBMMTk5Ljg1OTg2NSw3NC44MjQ1ODQ4IEwxOTkuODU5ODY1LDc3LjI4MTg3ODIgQzE5OS45NjIyNTIsODIuOTc0NjA4IDIwMi4wMDk5OTcsODUuMjI3MTI3IDIwOS4yNTkwMTMsODUuMjI3MTI3IEMyMTQuMjAzNzA5LDg1LjIwMjI2MTIgMjE5LjExNzI5NSw4NC40NDMxMzk4IDIyMy44Mzg5NTQsODIuOTc0NjA4IEwyMjUuNzAyNDAxLDkxLjk4NDY4MzkgQzIyMC4wODEzODQsOTQuMDExMDI5NSAyMTQuMTQ4Nzc3LDk1LjAzNjc2MDggMjA4LjE3MzcwOCw5NS4wMTU2NzQzIEMxOTMuMjA0Njk2LDk1LjAxNTY3NDMgMTg4LjAwMzQyNCw4OC4wNzM0OTE4IDE4OC4wMDM0MjQsNzYuNTg1NjQ1MSBMMTg4LjAwMzQyNCw2My45OTIwMTYzIEMxODguMDAzNDI0LDUzLjkxNzExMzIgMTkyLjUwODQ2Miw0NS4zOTg0OTYgMjA3Ljc4NDYzNyw0NS4zOTg0OTYgWiBNMzA4LjE2NTA3Myw0NS4zNzgwMTg2IEMzMjMuMTM0MDg1LDQ1LjM3ODAxODYgMzI3LjU1NzIxNCw1MC42NjExOTk0IDMyNy41NTcyMTQsNjIuNTk5NTUgTDMyNy41MTYyNTksOTQuMDMyNDI4NCBMMzE3LjcyODA0LDk0LjAzMjQyODQgTDMxNi44NDc1MSw5MC43OTY5OTIxIEMzMTIuNjI0NTAyLDkzLjU0NTQ0NTQgMzA3LjY5NTI2OCw5NS4wMTA3MDA5IDMwMi42NTY2NCw5NS4wMTUzNDU4IEMyOTMuOTUzNzI2LDk1LjAxNTM0NTggMjkwLjIyNjgzMSw4OS4wMzU5MzE4IDI5MC4yMjY4MzEsODAuODI0NDc2MiBDMjkwLjIyNjgzMSw3MS4xMzg2NDQ3IDI5NC40NDUxODUsNjcuNDExNzQ5NiAzMDQuMTMxMDE2LDY3LjQxMTc0OTYgTDMxNS41Nzc5MDgsNjcuNDExNzQ5NiBMMzE1LjU3NzkwOCw2Mi40MTUyNTMgQzMxNS41Nzc5MDgsNTcuMTMyMDcyMSAzMTQuMTAzNTMyLDU1LjI2ODYyNDYgMzA2LjQ2NTQ0NSw1NS4yNjg2MjQ2IEMzMDIuMDIxODM5LDU1LjMxNzc3MDUgMjk3LjU5ODcxMSw1NS44MTMzMjQ3IDI5My4yNTc0OTMsNTYuNzQzMDAwNyBMMjkxLjc4MzExNyw0Ny42MzA1Mzc2IEMyOTcuMTE5NjEsNDYuMTU2MDI2NyAzMDIuNjI4NjU2LDQ1LjM5ODUzMjkgMzA4LjE2NTA3Myw0NS4zNzgwMTg2IFogTTM4Ny41MTUxNzMsNDUuMzc4MDE4NiBDNDAzLjg1NjE3NCw0NS4zNzgwMTg2IDQwOC4yNTg4OTYsNTQuMzg4MDk0NSA0MDguMjU4ODk2LDY0LjE3NjMxMzMgTDQwOC4yNTg4OTYsNzYuMjE3MDUxMSBDNDA4LjI3OTMwMyw4Ni4wMDUyNjk5IDQwMy44NTYxNzQsOTUuMDE1MzQ1OCAzODcuNTE1MTczLDk1LjAxNTM0NTggQzM3MS4xMzMyMTcsOTUuMDE1MzQ1OCAzNjYuNzcxNTIxLDg2LjAwNTI2OTkgMzY2Ljc3MTUyMSw3Ni4yMTcwNTExIEwzNjYuNzcxNTIxLDY0LjE3NjMxMzMgQzM2Ni43NzE1MjEsNTQuMzg4MDk0NSAzNzEuMTc0MTcyLDQ1LjM3ODAxODYgMzg3LjUxNTE3Myw0NS4zNzgwMTg2IFogTTE5OC4wMTY4OTUsMjguODMyMjQyOSBMMTk4LjAxNjg5NSwzOS43MDU3NjYzIEwxNzkuNzkxOTY5LDM5LjcwNTc2NjMgTDE3OS43OTE5NjksOTQuMDMyNDI4NCBMMTY3LjUwNTUwMiw5NC4wMzI0Mjg0IEwxNjcuNDY0NTQ3LDM5LjcwNTc2NjMgTDE0OS4yNjAwOTgsMzkuNzA1NzY2MyBMMTQ5LjI2MDA5OCwyOC44MzIyNDI5IEwxOTguMDE2ODk1LDI4LjgzMjI0MjkgWiBNMzU1LjIyMjI0MiwyNC45MjA4Mjk4IEMzNTguNjgxNzUyLDI0LjkwOTI0MDUgMzYyLjEyNjYxLDI1LjM3MDg1MTUgMzY1LjQ2MDk2NSwyNi4yOTMwMzk2IEwzNjQuMjExODQsMzUuNDg3NDEyNSBDMzYxLjk1NjQ3MywzNS4wMDIyOTY3IDM1OS42NTg2MiwzNC43NDE2NDQ3IDM1Ny4zNTE4OTYsMzQuNzA5MjY5NiBDMzUyLjY2MjU2MSwzNC43MDkyNjk2IDM1MS45NjYzMjgsMzYuNzU3MDE0MiAzNTEuOTY2MzI4LDQwLjM4MTUyMiBMMzUxLjk2NjMyOCw0Ni4zNjA5MzYgTDM2NC4xMDk0NTMsNDYuMzYwOTM2IEwzNjMuNDMzNjk4LDU1Ljg2MjQ3MDUgTDM1MS45ODY4MDYsNTUuODYyNDcwNSBMMzUxLjk4NjgwNiw5NC4wMzI0Mjg0IEwzNDAuMDQ4NDU1LDk0LjAzMjQyODQgTDM0MC4wNDg0NTUsNTUuODYyNDcwNSBMMzMyLjQxMDM2OCw1NS44NjI0NzA1IEwzMzIuNDEwMzY4LDQ2LjM2MDkzNiBMMzQwLjA0ODQ1NSw0Ni4zNjA5MzYgTDM0MC4wNDg0NTUsMzkuNzA1NzY2MyBDMzQwLjA0ODQ1NSwyOS44MTUxNjAyIDM0NC42NTU4OCwyNC45MjA4Mjk4IDM1NS4yMjIyNDIsMjQuOTIwODI5OCBaIE00ODIuMDM5MDYsNTAuNDc2OTAyNCBDNDg3Ljk5NjY3Niw0Ny40MjQ4Mzg1IDQ5NC41Mzk2MjEsNDUuNjg2MTA1MSA1MDEuMjI2NDI2LDQ1LjM3ODAxODYgQzUwOS4xNTExOTgsNDUuMzc4MDE4NiA1MTEuOTk3NTYzLDUwLjk0Nzg4MzcgNTExLjk5NzU2Myw1OS40NjY1MDA5IEw1MTEuOTk3NTYzLDk0LjAzMjQyODQgTDUwMC4wNTkyMTIsOTQuMDMyNDI4NCBMNTAwLjA1OTIxMiw2MC43NTY1Nzk5IEM1MDAuMDU5MjEyLDU4LjIxNzM3NjcgNDk4Ljk3MzkwNyw1Ni45NDc3NzUxIDQ5Ni4yNTA0MDcsNTYuOTQ3Nzc1MSBDNDkxLjg2Njg1Miw1Ny40MzExMTE4IDQ4Ny42MzI4OTQsNTguODI2MTU1NiA0ODMuODIwNTk4LDYxLjA0MzI2NDIgTDQ4My44MjA1OTgsOTQuMDMyNDI4NCBMNDcxLjgwMDMzOCw5NC4wMzI0Mjg0IEw0NzEuODAwMzM4LDYwLjc1NjU3OTkgQzQ3MS44MDAzMzgsNTguMjE3Mzc2NyA0NzAuNzE1MDMzLDU2Ljk0Nzc3NTEgNDY3Ljk5MTUzMyw1Ni45NDc3NzUxIEM0NjMuNjE1NTAzLDU3LjQ2NzkwMjIgNDU5LjM5MTAwNiw1OC44NjAzNjg1IDQ1NS41NjE3MjQsNjEuMDQzMjY0MiBMNDU1LjU2MTcyNCw5NC4wMzI0Mjg0IEw0NDMuNjIzMzczLDk0LjAzMjQyODQgTDQ0My42MjMzNzMsNDYuMzYwOTM2IEw0NTIuNzM1ODM2LDQ2LjM2MDkzNiBMNDUzLjkwMzA1MSw1MC40NTY0MjUgQzQ1OS44NTM2MjIsNDcuNDQ2MTkwNiA0NjYuMzY4OTIyLDQ1LjcxNjIxOCA0NzMuMDI4OTg0LDQ1LjM3ODAxODYgQzQ3Ni44MDI5NzcsNDUuMDIxNzExIDQ4MC40MDA4NjUsNDcuMDU3MTY5MSA0ODIuMDM5MDYsNTAuNDc2OTAyNCBaIE0yNTcuMTc2MjM0LDQ1LjM3ODAxODYgTDI1OC40MDQ4ODEsNTYuMzUzOTI5MiBDMjU0LjAwNzQ3OSw1OC4zMzg0ODc4IDI0OS43Njk3MjcsNjAuNjU5MzI0NiAyNDUuNzI5MzQzLDYzLjI5NTc4MzEgTDI0NS43MjkzNDMsOTQuMDExOTUxIEwyMzMuNzkwOTkyLDk0LjAxMTk1MSBMMjMzLjc5MDk5Miw0Ni4zNjA5MzYgTDI0My44NjU4OTUsNDYuMzYwOTM2IEwyNDQuNjQ0MDM4LDUxLjY0NDExNjggQzI0OC41Mjg1NTcsNDkuMDE0ODUwNyAyNTIuNzQyMTEsNDYuOTA4MDczOCAyNTcuMTc2MjM0LDQ1LjM3ODAxODYgWiBNMjg2LjM3NzA3MSw0NS4zNzgwMTg2IEwyODcuNTY0NzYzLDU2LjM1MzkyOTIgQzI4My4xODExOTksNTguMzM5OTU0MiAyNzguOTU3MTcsNjAuNjYwNzczOSAyNzQuOTMwMTc5LDYzLjI5NTc4MzEgTDI3NC45MzAxNzksOTQuMDExOTUxIEwyNjIuOTkxODI5LDk0LjAxMTk1MSBMMjYyLjk5MTgyOSw0Ni4zNjA5MzYgTDI3My4wNjY3MzIsNDYuMzYwOTM2IEwyNzMuODQ0ODc1LDUxLjY0NDExNjggQzI3Ny43MjkzOTMsNDkuMDE0ODUwNyAyODEuOTQyOTQ3LDQ2LjkwODA3MzggMjg2LjM3NzA3MSw0NS4zNzgwMTg2IFogTTQzNy44MDc3NzksNDUuMzc4MDE4NiBMNDM4Ljk5NTQ3LDU2LjM1MzkyOTIgQzQzNC42MTE5MDYsNTguMzM5OTU0MiA0MzAuMzg3ODc4LDYwLjY2MDc3MzkgNDI2LjM2MDg4Nyw2My4yOTU3ODMxIEw0MjYuMzYwODg3LDk0LjAxMTk1MSBMNDE0LjQyMjUzNiw5NC4wMTE5NTEgTDQxNC40MjI1MzYsNDYuMzYwOTM2IEw0MjQuNDk3NDM5LDQ2LjM2MDkzNiBMNDI1LjI3NTU4Miw1MS42NDQxMTY4IEM0MjkuMTU5ODYsNDkuMDE0NDM5NyA0MzMuMzczNDcsNDYuOTA3NjM1IDQzNy44MDc3NzksNDUuMzc4MDE4NiBaIE0zMTUuNTc3OTA4LDc2LjAxMjI3NjYgTDMwNi43NzI2MDcsNzYuMDEyMjc2NiBDMzAyLjg2MTQxNSw3Ni4wMTIyNzY2IDMwMS43NzYxMSw3Ny4wOTc1ODEyIDMwMS43NzYxMSw4MC43MDE2MTE2IEMzMDEuNzc2MTEsODQuMzA1NjQxOSAzMDIuODYxNDE1LDg1LjQ5MzMzMzcgMzA2LjU2NzgzMiw4NS40OTMzMzM3IEMzMDkuNzMwMDU1LDg1LjQ0NTAyNTggMzEyLjgyOTAwNiw4NC41OTk4NTc1IDMxNS41Nzc5MDgsODMuMDM2MDQwMyBMMzE1LjU3NzkwOCw3Ni4wMTIyNzY2IFogTTM4Ny41MTUxNzMsNTUuNTU1MzA4OSBDMzgxLjE0NjY4OCw1NS41NTUzMDg5IDM3OC43MDk4NzIsNTguNDAxNjczNyAzNzguNzA5ODcyLDYzLjc0NjI4NjkgTDM3OC43MDk4NzIsNzYuNTY1MTY3NiBDMzc4LjcwOTg3Miw4MS45NTA3MzU3IDM4MS4xNjcxNjUsODQuNzU2MTQ1NyAzODcuNTE1MTczLDg0Ljc1NjE0NTcgQzM5My44NjMxODEsODQuNzU2MTQ1NyAzOTYuMzIwNDc1LDgxLjkwOTc4MDggMzk2LjMyMDQ3NSw3Ni41NjUxNjc2IEwzOTYuMzIwNDc1LDYzLjc4NzI0MTggQzM5Ni4zMjA0NzUsNTguNDAxNjczNyAzOTMuODgzNjU5LDU1LjU1NTMwODkgMzg3LjUxNTE3Myw1NS41NTUzMDg5IFogTTIwNy44ODcwMjQsNTUuMTY2MjM3NCBDMjAyLjAwOTk5Nyw1NS4xNjYyMzc0IDE5OS45NjIyNTIsNTguMjk5Mjg2NSAxOTkuOTYyMjUyLDYyLjgwNDMyNDUgTDE5OS45NjIyNTIsNjUuMjIwNjYzIEwyMTUuMTM2MDM5LDY1LjIyMDY2MyBMMjE1LjEzNjAzOSw2Mi44MDQzMjQ1IEMyMTUuMTM2MDM5LDU4LjI5OTI4NjUgMjEzLjc2NDA1MSw1NS4xNjYyMzc0IDIwNy44ODcwMjQsNTUuMTY2MjM3NCBaIj4KCjwvcGF0aD4KICAgICAgICA8Zz4KICAgICAgICAgICAgPHBvbHlnb24gcG9pbnRzPSI3NC41Mzc5MDA2IDc5LjgyMTA4MTQgMTA4LjEyMDkxMSA2MC40NDk0MTgzIDEwOC4xMjA5MTEgMjEuNjQ0NjU5NiA3NC41Mzc5MDA2IDQxLjA1NzI3NzYiIGZpbGw9IiM0MDQwQjIiPgoKPC9wb2x5Z29uPgogICAgICAgICAgICA8cGF0aCBmaWxsPSIjNUM0RUU1IiBkPSJNMzcuMjY4OTUwMywyMS42NDQ2NTk2IEw3MC44NTE5NjA0LDQxLjA1NzI3NzYgTDcwLjg1MTk2MDQsNzkuODIxMDgxNCBMMzcuMjY4OTUwMyw2MC40Mjg5NDA4IE0wLDM4Ljc4NDI4MTIgTDMzLjU4MzAxMDEsNTguMTc2NDIxOCBMMzMuNTgzMDEwMSwxOS4zOTIxNDA2IEwwLDAgTTM3LjI2ODk1MDMsMTAzLjQ3MjUzMSBMNzAuODUxOTYwNCwxMjIuODY0NjcxIEw3MC44NTE5NjA0LDg0LjA4MDM5IEwzNy4yNjg5NTAzLDY0LjY4ODI0OTQiPgoKPC9wYXRoPgogICAgICAgIDwvZz4KICAgIDwvZz4KPC9zdmc+;" parent="5" vertex="1">
                    <mxGeometry x="10" y="36" width="100" height="24" as="geometry"/>
                </mxCell>
                <mxCell id="59" value="Model Registry" style="sketch=0;points=[[0,0,0],[0.25,0,0],[0.5,0,0],[0.75,0,0],[1,0,0],[0,1,0],[0.25,1,0],[0.5,1,0],[0.75,1,0],[1,1,0],[0,0.25,0],[0,0.5,0],[0,0.75,0],[1,0.25,0],[1,0.5,0],[1,0.75,0]];outlineConnect=0;fontColor=#232F3E;fillColor=#01A88D;strokeColor=#ffffff;dashed=0;verticalLabelPosition=bottom;verticalAlign=top;align=center;html=1;fontSize=12;fontStyle=0;aspect=fixed;shape=mxgraph.aws4.resourceIcon;resIcon=mxgraph.aws4.sagemaker;" parent="5" vertex="1">
                    <mxGeometry x="390" y="564" width="60" height="60" as="geometry"/>
                </mxCell>
                <mxCell id="122" style="edgeStyle=none;html=1;" parent="5" target="105" edge="1">
                    <mxGeometry relative="1" as="geometry">
                        <mxPoint x="110" y="650" as="sourcePoint"/>
                    </mxGeometry>
                </mxCell>
                <mxCell id="57" value="Sent email approval" style="sketch=0;points=[[0,0,0],[0.25,0,0],[0.5,0,0],[0.75,0,0],[1,0,0],[0,1,0],[0.25,1,0],[0.5,1,0],[0.75,1,0],[1,1,0],[0,0.25,0],[0,0.5,0],[0,0.75,0],[1,0.25,0],[1,0.5,0],[1,0.75,0]];outlineConnect=0;fontColor=#232F3E;fillColor=#ED7100;strokeColor=#ffffff;dashed=0;verticalLabelPosition=bottom;verticalAlign=top;align=center;html=1;fontSize=12;fontStyle=0;aspect=fixed;shape=mxgraph.aws4.resourceIcon;resIcon=mxgraph.aws4.lambda;" parent="5" vertex="1">
                    <mxGeometry x="80" y="564" width="60" height="60" as="geometry"/>
                </mxCell>
                <mxCell id="63" value="Event Bridge" style="sketch=0;points=[[0,0,0],[0.25,0,0],[0.5,0,0],[0.75,0,0],[1,0,0],[0,1,0],[0.25,1,0],[0.5,1,0],[0.75,1,0],[1,1,0],[0,0.25,0],[0,0.5,0],[0,0.75,0],[1,0.25,0],[1,0.5,0],[1,0.75,0]];outlineConnect=0;fontColor=#232F3E;fillColor=#E7157B;strokeColor=#ffffff;dashed=0;verticalLabelPosition=bottom;verticalAlign=top;align=center;html=1;fontSize=12;fontStyle=0;aspect=fixed;shape=mxgraph.aws4.resourceIcon;resIcon=mxgraph.aws4.eventbridge;" parent="5" vertex="1">
                    <mxGeometry x="230" y="564" width="60" height="60" as="geometry"/>
                </mxCell>
                <mxCell id="64" value="Appro&lt;span style=&quot;background-color: transparent;&quot;&gt;ver&lt;/span&gt;" style="shape=actor;whiteSpace=wrap;html=1;verticalAlign=top;labelPosition=center;verticalLabelPosition=bottom;align=center;" parent="5" vertex="1">
                    <mxGeometry x="80" y="864" width="60" height="70" as="geometry"/>
                </mxCell>
                <mxCell id="65" value="&lt;font style=&quot;font-size: 11px;&quot;&gt;Request&lt;/font&gt;&lt;div&gt;&lt;font style=&quot;font-size: 11px;&quot;&gt;Model Approval&lt;/font&gt;&lt;/div&gt;" style="shape=message;html=1;html=1;outlineConnect=0;labelPosition=center;verticalLabelPosition=bottom;align=center;verticalAlign=top;" parent="5" vertex="1">
                    <mxGeometry x="130" y="800" width="50" height="30" as="geometry"/>
                </mxCell>
                <mxCell id="125" style="edgeStyle=none;html=1;exitX=1;exitY=0.5;exitDx=0;exitDy=0;exitPerimeter=0;" parent="5" source="67" target="68" edge="1">
                    <mxGeometry relative="1" as="geometry"/>
                </mxCell>
                <mxCell id="67" value="API Gateway" style="sketch=0;points=[[0,0,0],[0.25,0,0],[0.5,0,0],[0.75,0,0],[1,0,0],[0,1,0],[0.25,1,0],[0.5,1,0],[0.75,1,0],[1,1,0],[0,0.25,0],[0,0.5,0],[0,0.75,0],[1,0.25,0],[1,0.5,0],[1,0.75,0]];outlineConnect=0;fontColor=#232F3E;fillColor=#E7157B;strokeColor=#ffffff;dashed=0;verticalLabelPosition=bottom;verticalAlign=top;align=center;html=1;fontSize=12;fontStyle=0;aspect=fixed;shape=mxgraph.aws4.resourceIcon;resIcon=mxgraph.aws4.api_gateway;" parent="5" vertex="1">
                    <mxGeometry x="230" y="869" width="60" height="60" as="geometry"/>
                </mxCell>
                <mxCell id="135" style="edgeStyle=none;html=1;exitX=1;exitY=0.5;exitDx=0;exitDy=0;exitPerimeter=0;" parent="5" source="68" target="69" edge="1">
                    <mxGeometry relative="1" as="geometry"/>
                </mxCell>
                <mxCell id="139" style="edgeStyle=none;html=1;exitX=1;exitY=0.25;exitDx=0;exitDy=0;exitPerimeter=0;" parent="5" source="68" target="70" edge="1">
                    <mxGeometry relative="1" as="geometry">
                        <Array as="points">
                            <mxPoint x="660" y="880"/>
                            <mxPoint x="660" y="380"/>
                        </Array>
                    </mxGeometry>
                </mxCell>
                <mxCell id="143" value="&lt;span style=&quot;font-size: 12px; color: rgb(63, 63, 63);&quot;&gt;Deployment pipeline&lt;/span&gt;&lt;div style=&quot;font-size: 12px;&quot;&gt;execution&lt;/div&gt;" style="edgeLabel;html=1;align=center;verticalAlign=middle;resizable=0;points=[];labelBackgroundColor=default;" parent="139" vertex="1" connectable="0">
                    <mxGeometry x="-0.0512" y="3" relative="1" as="geometry">
                        <mxPoint x="3" y="-18" as="offset"/>
                    </mxGeometry>
                </mxCell>
                <mxCell id="68" value="" style="sketch=0;points=[[0,0,0],[0.25,0,0],[0.5,0,0],[0.75,0,0],[1,0,0],[0,1,0],[0.25,1,0],[0.5,1,0],[0.75,1,0],[1,1,0],[0,0.25,0],[0,0.5,0],[0,0.75,0],[1,0.25,0],[1,0.5,0],[1,0.75,0]];outlineConnect=0;fontColor=#232F3E;fillColor=#ED7100;strokeColor=#ffffff;dashed=0;verticalLabelPosition=bottom;verticalAlign=top;align=center;html=1;fontSize=12;fontStyle=0;aspect=fixed;shape=mxgraph.aws4.resourceIcon;resIcon=mxgraph.aws4.lambda;" parent="5" vertex="1">
                    <mxGeometry x="385" y="864" width="65" height="65" as="geometry"/>
                </mxCell>
                <mxCell id="69" value="Parameter Store" style="sketch=0;outlineConnect=0;fontColor=#232F3E;gradientColor=none;fillColor=#E7157B;strokeColor=none;dashed=0;verticalLabelPosition=bottom;verticalAlign=top;align=center;html=1;fontSize=12;fontStyle=0;aspect=fixed;pointerEvents=1;shape=mxgraph.aws4.parameter_store;" parent="5" vertex="1">
                    <mxGeometry x="900" y="864" width="60" height="62.4" as="geometry"/>
                </mxCell>
                <mxCell id="70" value="Deployment Pipeline" style="points=[[0,0],[0.25,0],[0.5,0],[0.75,0],[1,0],[1,0.25],[1,0.5],[1,0.75],[1,1],[0.75,1],[0.5,1],[0.25,1],[0,1],[0,0.75],[0,0.5],[0,0.25]];outlineConnect=0;gradientColor=none;html=1;whiteSpace=wrap;fontSize=12;fontStyle=0;container=1;pointerEvents=0;collapsible=0;recursiveResize=0;shape=mxgraph.aws4.group;grIcon=mxgraph.aws4.group_aws_step_functions_workflow;strokeColor=#CD2264;fillColor=none;verticalAlign=top;align=left;spacingLeft=30;fontColor=#CD2264;dashed=0;" parent="5" vertex="1">
                    <mxGeometry x="703" y="255" width="300" height="260" as="geometry"/>
                </mxCell>
                <mxCell id="72" value="&lt;font&gt;Deploy Model&lt;/font&gt;" style="sketch=0;points=[[0,0,0],[0.25,0,0],[0.5,0,0],[0.75,0,0],[1,0,0],[0,1,0],[0.25,1,0],[0.5,1,0],[0.75,1,0],[1,1,0],[0,0.25,0],[0,0.5,0],[0,0.75,0],[1,0.25,0],[1,0.5,0],[1,0.75,0]];outlineConnect=0;fontColor=#232F3E;fillColor=#01A88D;strokeColor=#ffffff;dashed=0;verticalLabelPosition=bottom;verticalAlign=top;align=center;html=1;fontSize=12;fontStyle=0;aspect=fixed;shape=mxgraph.aws4.resourceIcon;resIcon=mxgraph.aws4.sagemaker;" parent="70" vertex="1">
                    <mxGeometry x="62" y="77" width="60" height="60" as="geometry"/>
                </mxCell>
                <mxCell id="80" value="&lt;font&gt;Server&lt;/font&gt;&lt;span style=&quot;background-color: transparent;&quot;&gt;les Inference&lt;/span&gt;" style="sketch=0;points=[[0,0,0],[0.25,0,0],[0.5,0,0],[0.75,0,0],[1,0,0],[0,1,0],[0.25,1,0],[0.5,1,0],[0.75,1,0],[1,1,0],[0,0.25,0],[0,0.5,0],[0,0.75,0],[1,0.25,0],[1,0.5,0],[1,0.75,0]];outlineConnect=0;fontColor=#232F3E;fillColor=#01A88D;strokeColor=#ffffff;dashed=0;verticalLabelPosition=bottom;verticalAlign=top;align=center;html=1;fontSize=12;fontStyle=0;aspect=fixed;shape=mxgraph.aws4.resourceIcon;resIcon=mxgraph.aws4.sagemaker;" parent="70" vertex="1">
                    <mxGeometry x="190" y="77" width="60" height="60" as="geometry"/>
                </mxCell>
                <mxCell id="82" style="edgeStyle=none;html=1;exitX=1;exitY=0.5;exitDx=0;exitDy=0;exitPerimeter=0;entryX=0;entryY=0.5;entryDx=0;entryDy=0;entryPerimeter=0;" parent="70" source="72" target="80" edge="1">
                    <mxGeometry relative="1" as="geometry"/>
                </mxCell>
                <mxCell id="164" value="⑨" style="text;html=1;align=center;verticalAlign=middle;resizable=0;points=[];autosize=1;strokeColor=none;fillColor=none;fontSize=15;" parent="70" vertex="1">
                    <mxGeometry x="140" width="40" height="30" as="geometry"/>
                </mxCell>
                <mxCell id="87" value="Event Bridge" style="sketch=0;points=[[0,0,0],[0.25,0,0],[0.5,0,0],[0.75,0,0],[1,0,0],[0,1,0],[0.25,1,0],[0.5,1,0],[0.75,1,0],[1,1,0],[0,0.25,0],[0,0.5,0],[0,0.75,0],[1,0.25,0],[1,0.5,0],[1,0.75,0]];outlineConnect=0;fontColor=#232F3E;fillColor=#E7157B;strokeColor=#ffffff;dashed=0;verticalLabelPosition=bottom;verticalAlign=top;align=center;html=1;fontSize=12;fontStyle=0;aspect=fixed;shape=mxgraph.aws4.resourceIcon;resIcon=mxgraph.aws4.eventbridge;" parent="5" vertex="1">
                    <mxGeometry x="896" y="566.6" width="60" height="60" as="geometry"/>
                </mxCell>
                <mxCell id="134" style="edgeStyle=none;html=1;" parent="5" target="69" edge="1">
                    <mxGeometry relative="1" as="geometry">
                        <mxPoint x="930" y="812.6" as="sourcePoint"/>
                    </mxGeometry>
                </mxCell>
                <mxCell id="90" value="Store update: Deployed model ARN&amp;nbsp;&lt;div&gt;&amp;amp; Endpoint name&lt;/div&gt;" style="sketch=0;points=[[0,0,0],[0.25,0,0],[0.5,0,0],[0.75,0,0],[1,0,0],[0,1,0],[0.25,1,0],[0.5,1,0],[0.75,1,0],[1,1,0],[0,0.25,0],[0,0.5,0],[0,0.75,0],[1,0.25,0],[1,0.5,0],[1,0.75,0]];outlineConnect=0;fontColor=#232F3E;fillColor=#ED7100;strokeColor=#ffffff;dashed=0;verticalLabelPosition=bottom;verticalAlign=top;align=center;html=1;fontSize=12;fontStyle=0;aspect=fixed;shape=mxgraph.aws4.resourceIcon;resIcon=mxgraph.aws4.lambda;" parent="5" vertex="1">
                    <mxGeometry x="900" y="716.6" width="60" height="60" as="geometry"/>
                </mxCell>
                <mxCell id="94" value="Capture Event" style="text;html=1;align=center;verticalAlign=middle;resizable=0;points=[];autosize=1;strokeColor=none;fillColor=none;" parent="5" vertex="1">
                    <mxGeometry x="280" y="564" width="100" height="30" as="geometry"/>
                </mxCell>
                <mxCell id="101" value="&lt;font style=&quot;color: rgb(0, 153, 0);&quot;&gt;Approve&lt;/font&gt;&lt;font style=&quot;color: rgb(51, 255, 51);&quot;&gt; &lt;/font&gt;&lt;font style=&quot;color: rgb(0, 0, 0);&quot;&gt;/&amp;nbsp;&lt;/font&gt;&lt;div&gt;&lt;font style=&quot;color: rgb(255, 0, 0);&quot;&gt;Reject&lt;/font&gt;&lt;/div&gt;" style="text;html=1;align=center;verticalAlign=middle;resizable=0;points=[];autosize=1;strokeColor=none;fillColor=none;fontSize=12;" parent="5" vertex="1">
                    <mxGeometry x="145" y="899" width="80" height="40" as="geometry"/>
                </mxCell>
                <mxCell id="123" style="edgeStyle=none;html=1;entryX=0.5;entryY=0;entryDx=0;entryDy=0;" parent="5" target="64" edge="1">
                    <mxGeometry relative="1" as="geometry">
                        <mxPoint x="110" y="800" as="sourcePoint"/>
                    </mxGeometry>
                </mxCell>
                <mxCell id="105" value="SES" style="sketch=0;points=[[0,0,0],[0.25,0,0],[0.5,0,0],[0.75,0,0],[1,0,0],[0,1,0],[0.25,1,0],[0.5,1,0],[0.75,1,0],[1,1,0],[0,0.25,0],[0,0.5,0],[0,0.75,0],[1,0.25,0],[1,0.5,0],[1,0.75,0]];outlineConnect=0;fontColor=#232F3E;gradientColor=#4D72F3;gradientDirection=north;fillColor=#3334B9;strokeColor=#ffffff;dashed=0;verticalLabelPosition=bottom;verticalAlign=top;align=center;html=1;fontSize=12;fontStyle=0;aspect=fixed;shape=mxgraph.aws4.resourceIcon;resIcon=mxgraph.aws4.simple_email_service;" parent="5" vertex="1">
                    <mxGeometry x="80" y="714" width="60" height="60" as="geometry"/>
                </mxCell>
                <mxCell id="11" value="Model Pipeline" style="points=[[0,0],[0.25,0],[0.5,0],[0.75,0],[1,0],[1,0.25],[1,0.5],[1,0.75],[1,1],[0.75,1],[0.5,1],[0.25,1],[0,1],[0,0.75],[0,0.5],[0,0.25]];outlineConnect=0;gradientColor=none;html=1;whiteSpace=wrap;fontSize=12;fontStyle=0;container=1;pointerEvents=0;collapsible=0;recursiveResize=0;shape=mxgraph.aws4.group;grIcon=mxgraph.aws4.group_aws_step_functions_workflow;strokeColor=#CD2264;fillColor=none;verticalAlign=top;align=left;spacingLeft=30;fontColor=#CD2264;dashed=0;" parent="5" vertex="1">
                    <mxGeometry x="20" y="255" width="620" height="260" as="geometry"/>
                </mxCell>
                <mxCell id="113" value="" style="group" parent="11" vertex="1" connectable="0">
                    <mxGeometry x="70" y="45" width="350" height="170" as="geometry"/>
                </mxCell>
                <mxCell id="187" value="Dataprep&lt;div&gt;Fom Future Store&lt;/div&gt;" style="sketch=0;points=[[0,0,0],[0.25,0,0],[0.5,0,0],[0.75,0,0],[1,0,0],[0,1,0],[0.25,1,0],[0.5,1,0],[0.75,1,0],[1,1,0],[0,0.25,0],[0,0.5,0],[0,0.75,0],[1,0.25,0],[1,0.5,0],[1,0.75,0]];outlineConnect=0;fontColor=#232F3E;fillColor=#01A88D;strokeColor=#ffffff;dashed=0;verticalLabelPosition=bottom;verticalAlign=top;align=center;html=1;fontSize=12;fontStyle=0;aspect=fixed;shape=mxgraph.aws4.resourceIcon;resIcon=mxgraph.aws4.sagemaker;" vertex="1" parent="113">
                    <mxGeometry x="160" width="60" height="60" as="geometry"/>
                </mxCell>
                <mxCell id="177" value="Feature Store" style="sketch=0;points=[[0,0,0],[0.25,0,0],[0.5,0,0],[0.75,0,0],[1,0,0],[0,1,0],[0.25,1,0],[0.5,1,0],[0.75,1,0],[1,1,0],[0,0.25,0],[0,0.5,0],[0,0.75,0],[1,0.25,0],[1,0.5,0],[1,0.75,0]];outlineConnect=0;fontColor=#232F3E;fillColor=#7AA116;strokeColor=#ffffff;dashed=0;verticalLabelPosition=bottom;verticalAlign=top;align=center;html=1;fontSize=12;fontStyle=0;aspect=fixed;shape=mxgraph.aws4.resourceIcon;resIcon=mxgraph.aws4.s3;" vertex="1" parent="113">
                    <mxGeometry x="60" width="60" height="60" as="geometry"/>
                </mxCell>
                <mxCell id="200" style="edgeStyle=none;html=1;exitX=1;exitY=0.5;exitDx=0;exitDy=0;exitPerimeter=0;entryX=0;entryY=0.5;entryDx=0;entryDy=0;entryPerimeter=0;" edge="1" parent="113" source="177" target="187">
                    <mxGeometry relative="1" as="geometry"/>
                </mxCell>
                <mxCell id="159" value="④" style="text;html=1;align=center;verticalAlign=middle;resizable=0;points=[];autosize=1;strokeColor=none;fillColor=none;fontSize=15;" parent="11" vertex="1">
                    <mxGeometry x="114" width="40" height="30" as="geometry"/>
                </mxCell>
                <mxCell id="10" value="&lt;font&gt;Processing Data&lt;/font&gt;" style="sketch=0;points=[[0,0,0],[0.25,0,0],[0.5,0,0],[0.75,0,0],[1,0,0],[0,1,0],[0.25,1,0],[0.5,1,0],[0.75,1,0],[1,1,0],[0,0.25,0],[0,0.5,0],[0,0.75,0],[1,0.25,0],[1,0.5,0],[1,0.75,0]];outlineConnect=0;fontColor=#232F3E;fillColor=#01A88D;strokeColor=#ffffff;dashed=0;verticalLabelPosition=bottom;verticalAlign=top;align=center;html=1;fontSize=12;fontStyle=0;aspect=fixed;shape=mxgraph.aws4.resourceIcon;resIcon=mxgraph.aws4.sagemaker;" parent="11" vertex="1">
                    <mxGeometry x="30" y="45" width="60" height="60" as="geometry"/>
                </mxCell>
                <mxCell id="25" value="" style="edgeStyle=none;html=1;" parent="11" source="13" target="14" edge="1">
                    <mxGeometry relative="1" as="geometry"/>
                </mxCell>
                <mxCell id="13" value="&lt;font&gt;Train Model&lt;/font&gt;" style="sketch=0;points=[[0,0,0],[0.25,0,0],[0.5,0,0],[0.75,0,0],[1,0,0],[0,1,0],[0.25,1,0],[0.5,1,0],[0.75,1,0],[1,1,0],[0,0.25,0],[0,0.5,0],[0,0.75,0],[1,0.25,0],[1,0.5,0],[1,0.75,0]];outlineConnect=0;fontColor=#232F3E;fillColor=#01A88D;strokeColor=#ffffff;dashed=0;verticalLabelPosition=bottom;verticalAlign=top;align=center;html=1;fontSize=12;fontStyle=0;aspect=fixed;shape=mxgraph.aws4.resourceIcon;resIcon=mxgraph.aws4.sagemaker;" parent="11" vertex="1">
                    <mxGeometry x="330" y="45" width="60" height="60" as="geometry"/>
                </mxCell>
                <mxCell id="26" value="" style="edgeStyle=none;html=1;" parent="11" source="14" target="19" edge="1">
                    <mxGeometry relative="1" as="geometry"/>
                </mxCell>
                <mxCell id="14" value="&lt;font&gt;Evaluate Model&lt;/font&gt;" style="sketch=0;points=[[0,0,0],[0.25,0,0],[0.5,0,0],[0.75,0,0],[1,0,0],[0,1,0],[0.25,1,0],[0.5,1,0],[0.75,1,0],[1,1,0],[0,0.25,0],[0,0.5,0],[0,0.75,0],[1,0.25,0],[1,0.5,0],[1,0.75,0]];outlineConnect=0;fontColor=#232F3E;fillColor=#01A88D;strokeColor=#ffffff;dashed=0;verticalLabelPosition=bottom;verticalAlign=top;align=center;html=1;fontSize=12;fontStyle=0;aspect=fixed;shape=mxgraph.aws4.resourceIcon;resIcon=mxgraph.aws4.sagemaker;" parent="11" vertex="1">
                    <mxGeometry x="430" y="45" width="60" height="60" as="geometry"/>
                </mxCell>
                <mxCell id="19" value="&lt;font&gt;Check Evaluation&lt;/font&gt;" style="sketch=0;points=[[0,0,0],[0.25,0,0],[0.5,0,0],[0.75,0,0],[1,0,0],[0,1,0],[0.25,1,0],[0.5,1,0],[0.75,1,0],[1,1,0],[0,0.25,0],[0,0.5,0],[0,0.75,0],[1,0.25,0],[1,0.5,0],[1,0.75,0]];outlineConnect=0;fontColor=#232F3E;fillColor=#01A88D;strokeColor=#ffffff;dashed=0;verticalLabelPosition=bottom;verticalAlign=top;align=center;html=1;fontSize=12;fontStyle=0;aspect=fixed;shape=mxgraph.aws4.resourceIcon;resIcon=mxgraph.aws4.sagemaker;" parent="11" vertex="1">
                    <mxGeometry x="530" y="45" width="60" height="60" as="geometry"/>
                </mxCell>
                <mxCell id="55" value="&lt;font&gt;Visualize Result&lt;/font&gt;" style="sketch=0;points=[[0,0,0],[0.25,0,0],[0.5,0,0],[0.75,0,0],[1,0,0],[0,1,0],[0.25,1,0],[0.5,1,0],[0.75,1,0],[1,1,0],[0,0.25,0],[0,0.5,0],[0,0.75,0],[1,0.25,0],[1,0.5,0],[1,0.75,0]];outlineConnect=0;fontColor=#232F3E;fillColor=#01A88D;strokeColor=#ffffff;dashed=0;verticalLabelPosition=bottom;verticalAlign=top;align=center;html=1;fontSize=12;fontStyle=0;aspect=fixed;shape=mxgraph.aws4.resourceIcon;resIcon=mxgraph.aws4.sagemaker;" parent="11" vertex="1">
                    <mxGeometry x="430" y="155" width="60" height="60" as="geometry"/>
                </mxCell>
                <mxCell id="56" style="edgeStyle=none;html=1;exitX=1;exitY=0.5;exitDx=0;exitDy=0;exitPerimeter=0;entryX=0;entryY=0.5;entryDx=0;entryDy=0;entryPerimeter=0;" parent="11" source="13" target="55" edge="1">
                    <mxGeometry relative="1" as="geometry"/>
                </mxCell>
                <mxCell id="199" style="edgeStyle=none;html=1;exitX=1;exitY=0.5;exitDx=0;exitDy=0;exitPerimeter=0;entryX=0;entryY=0.5;entryDx=0;entryDy=0;entryPerimeter=0;" edge="1" parent="11" source="10" target="177">
                    <mxGeometry relative="1" as="geometry"/>
                </mxCell>
                <mxCell id="201" style="edgeStyle=none;html=1;exitX=1;exitY=0.5;exitDx=0;exitDy=0;exitPerimeter=0;entryX=0;entryY=0.5;entryDx=0;entryDy=0;entryPerimeter=0;" edge="1" parent="11" source="187" target="13">
                    <mxGeometry relative="1" as="geometry"/>
                </mxCell>
                <mxCell id="120" style="edgeStyle=none;html=1;exitX=0;exitY=0.5;exitDx=0;exitDy=0;exitPerimeter=0;entryX=1;entryY=0.5;entryDx=0;entryDy=0;entryPerimeter=0;" parent="5" source="59" target="63" edge="1">
                    <mxGeometry relative="1" as="geometry"/>
                </mxCell>
                <mxCell id="121" style="edgeStyle=none;html=1;exitX=0;exitY=0.5;exitDx=0;exitDy=0;exitPerimeter=0;entryX=1;entryY=0.5;entryDx=0;entryDy=0;entryPerimeter=0;" parent="5" source="63" target="57" edge="1">
                    <mxGeometry relative="1" as="geometry"/>
                </mxCell>
                <mxCell id="124" style="edgeStyle=none;html=1;exitX=0.9;exitY=0.5;exitDx=0;exitDy=0;exitPerimeter=0;entryX=0;entryY=0.5;entryDx=0;entryDy=0;entryPerimeter=0;" parent="5" source="64" target="67" edge="1">
                    <mxGeometry relative="1" as="geometry"/>
                </mxCell>
                <mxCell id="128" style="edgeStyle=none;html=1;entryX=0.5;entryY=0;entryDx=0;entryDy=0;entryPerimeter=0;" parent="5" target="90" edge="1">
                    <mxGeometry relative="1" as="geometry">
                        <mxPoint x="930" y="652.6" as="sourcePoint"/>
                    </mxGeometry>
                </mxCell>
                <mxCell id="130" value="Capture Event" style="text;html=1;align=center;verticalAlign=middle;resizable=0;points=[];autosize=1;strokeColor=none;fillColor=none;" parent="5" vertex="1">
                    <mxGeometry x="921" y="515" width="100" height="30" as="geometry"/>
                </mxCell>
                <mxCell id="140" value="Update status to&lt;br&gt;Approved" style="text;html=1;align=center;verticalAlign=middle;resizable=0;points=[];autosize=1;" parent="5" vertex="1">
                    <mxGeometry x="320" y="734" width="110" height="40" as="geometry"/>
                </mxCell>
                <mxCell id="144" value="&lt;div&gt;&lt;span style=&quot;color: rgb(35, 47, 62);&quot;&gt;Store update&lt;/span&gt;&lt;span style=&quot;background-color: transparent;&quot;&gt;:&amp;nbsp;&lt;/span&gt;&lt;/div&gt;&lt;div&gt;&lt;span style=&quot;background-color: transparent;&quot;&gt;Approved model ARN&lt;/span&gt;&lt;/div&gt;" style="text;html=1;align=center;verticalAlign=middle;resizable=0;points=[];autosize=1;strokeColor=none;fillColor=none;" parent="5" vertex="1">
                    <mxGeometry x="580" y="899" width="140" height="40" as="geometry"/>
                </mxCell>
                <mxCell id="161" value="⑥" style="text;html=1;align=center;verticalAlign=middle;resizable=0;points=[];autosize=1;strokeColor=none;fillColor=none;fontSize=15;" parent="5" vertex="1">
                    <mxGeometry x="240" y="530" width="40" height="30" as="geometry"/>
                </mxCell>
                <mxCell id="162" value="⑦" style="text;html=1;align=center;verticalAlign=middle;resizable=0;points=[];autosize=1;strokeColor=none;fillColor=none;fontSize=15;" parent="5" vertex="1">
                    <mxGeometry x="160" y="864" width="40" height="30" as="geometry"/>
                </mxCell>
                <mxCell id="163" value="⑧" style="text;html=1;align=center;verticalAlign=middle;resizable=0;points=[];autosize=1;strokeColor=none;fillColor=none;fontSize=15;" parent="5" vertex="1">
                    <mxGeometry x="355" y="841.6" width="40" height="30" as="geometry"/>
                </mxCell>
                <mxCell id="166" value="⑩" style="text;html=1;align=center;verticalAlign=middle;resizable=0;points=[];autosize=1;strokeColor=none;fillColor=none;fontSize=15;" parent="5" vertex="1">
                    <mxGeometry x="951" y="566.6" width="40" height="30" as="geometry"/>
                </mxCell>
                <mxCell id="9" value="S3" style="sketch=0;points=[[0,0,0],[0.25,0,0],[0.5,0,0],[0.75,0,0],[1,0,0],[0,1,0],[0.25,1,0],[0.5,1,0],[0.75,1,0],[1,1,0],[0,0.25,0],[0,0.5,0],[0,0.75,0],[1,0.25,0],[1,0.5,0],[1,0.75,0]];outlineConnect=0;fontColor=#232F3E;fillColor=#7AA116;strokeColor=#ffffff;dashed=0;verticalLabelPosition=bottom;verticalAlign=top;align=center;html=1;fontSize=12;fontStyle=0;aspect=fixed;shape=mxgraph.aws4.resourceIcon;resIcon=mxgraph.aws4.s3;" parent="5" vertex="1">
                    <mxGeometry x="50" y="90" width="60" height="60" as="geometry"/>
                </mxCell>
                <mxCell id="170" value="MWAA" style="sketch=0;points=[[0,0,0],[0.25,0,0],[0.5,0,0],[0.75,0,0],[1,0,0],[0,1,0],[0.25,1,0],[0.5,1,0],[0.75,1,0],[1,1,0],[0,0.25,0],[0,0.5,0],[0,0.75,0],[1,0.25,0],[1,0.5,0],[1,0.75,0]];outlineConnect=0;fontColor=#232F3E;fillColor=#E7157B;strokeColor=#ffffff;dashed=0;verticalLabelPosition=bottom;verticalAlign=top;align=center;html=1;fontSize=12;fontStyle=0;aspect=fixed;shape=mxgraph.aws4.resourceIcon;resIcon=mxgraph.aws4.managed_workflows_for_apache_airflow;" vertex="1" parent="5">
                    <mxGeometry x="345" y="90" width="60" height="60" as="geometry"/>
                </mxCell>
                <mxCell id="172" value="EMR" style="sketch=0;points=[[0,0,0],[0.25,0,0],[0.5,0,0],[0.75,0,0],[1,0,0],[0,1,0],[0.25,1,0],[0.5,1,0],[0.75,1,0],[1,1,0],[0,0.25,0],[0,0.5,0],[0,0.75,0],[1,0.25,0],[1,0.5,0],[1,0.75,0]];outlineConnect=0;fontColor=#232F3E;fillColor=#8C4FFF;strokeColor=#ffffff;dashed=0;verticalLabelPosition=bottom;verticalAlign=top;align=center;html=1;fontSize=12;fontStyle=0;aspect=fixed;shape=mxgraph.aws4.resourceIcon;resIcon=mxgraph.aws4.emr;" vertex="1" parent="5">
                    <mxGeometry x="450" y="90" width="60" height="60" as="geometry"/>
                </mxCell>
                <mxCell id="174" value="&lt;span style=&quot;background-color: light-dark(#ffffff, var(--ge-dark-color, #121212));&quot;&gt;S3&lt;/span&gt;" style="sketch=0;points=[[0,0,0],[0.25,0,0],[0.5,0,0],[0.75,0,0],[1,0,0],[0,1,0],[0.25,1,0],[0.5,1,0],[0.75,1,0],[1,1,0],[0,0.25,0],[0,0.5,0],[0,0.75,0],[1,0.25,0],[1,0.5,0],[1,0.75,0]];outlineConnect=0;fontColor=#232F3E;fillColor=#7AA116;strokeColor=#ffffff;dashed=0;verticalLabelPosition=bottom;verticalAlign=top;align=center;html=1;fontSize=12;fontStyle=0;aspect=fixed;shape=mxgraph.aws4.resourceIcon;resIcon=mxgraph.aws4.s3;" vertex="1" parent="5">
                    <mxGeometry x="557" y="90" width="60" height="60" as="geometry"/>
                </mxCell>
                <mxCell id="189" style="edgeStyle=none;html=1;exitX=1;exitY=0.5;exitDx=0;exitDy=0;exitPerimeter=0;entryX=0;entryY=0.5;entryDx=0;entryDy=0;entryPerimeter=0;" edge="1" parent="5" source="170" target="172">
                    <mxGeometry relative="1" as="geometry"/>
                </mxCell>
                <mxCell id="190" style="edgeStyle=none;html=1;exitX=1;exitY=0.5;exitDx=0;exitDy=0;exitPerimeter=0;entryX=0;entryY=0.5;entryDx=0;entryDy=0;entryPerimeter=0;" edge="1" parent="5" source="172" target="174">
                    <mxGeometry relative="1" as="geometry"/>
                </mxCell>
                <mxCell id="192" style="edgeStyle=none;html=1;entryX=1;entryY=0.5;entryDx=0;entryDy=0;entryPerimeter=0;" edge="1" parent="5">
                    <mxGeometry relative="1" as="geometry">
                        <mxPoint x="580" y="390" as="sourcePoint"/>
                        <mxPoint x="460" y="594" as="targetPoint"/>
                        <Array as="points">
                            <mxPoint x="580" y="490"/>
                            <mxPoint x="580" y="594"/>
                        </Array>
                    </mxGeometry>
                </mxCell>
                <mxCell id="198" style="edgeStyle=none;html=1;" edge="1" parent="5" target="87">
                    <mxGeometry relative="1" as="geometry">
                        <mxPoint x="926" y="420" as="sourcePoint"/>
                    </mxGeometry>
                </mxCell>
                <mxCell id="61" value="Pending&amp;nbsp;&lt;div&gt;Manual Approval&amp;nbsp;&lt;/div&gt;" style="text;html=1;align=center;verticalAlign=middle;resizable=0;points=[];autosize=1;fillColor=default;" parent="5" vertex="1">
                    <mxGeometry x="520" y="540" width="120" height="40" as="geometry"/>
                </mxCell>
                <mxCell id="204" style="edgeStyle=none;html=1;exitX=0.5;exitY=0;exitDx=0;exitDy=0;exitPerimeter=0;" edge="1" parent="5" source="68">
                    <mxGeometry relative="1" as="geometry">
                        <mxPoint x="420" y="650" as="targetPoint"/>
                    </mxGeometry>
                </mxCell>
                <mxCell id="208" value="" style="edgeStyle=none;orthogonalLoop=1;jettySize=auto;html=1;startArrow=none;startFill=0;endArrow=classic;endFill=1;" edge="1" parent="5">
                    <mxGeometry width="100" relative="1" as="geometry">
                        <mxPoint x="980" y="383" as="sourcePoint"/>
                        <mxPoint x="1180" y="383" as="targetPoint"/>
                        <Array as="points"/>
                    </mxGeometry>
                </mxCell>
                <mxCell id="213" value="Unzip &amp;amp; Exctract Data" style="sketch=0;points=[[0,0,0],[0.25,0,0],[0.5,0,0],[0.75,0,0],[1,0,0],[0,1,0],[0.25,1,0],[0.5,1,0],[0.75,1,0],[1,1,0],[0,0.25,0],[0,0.5,0],[0,0.75,0],[1,0.25,0],[1,0.5,0],[1,0.75,0]];outlineConnect=0;fontColor=#232F3E;fillColor=#ED7100;strokeColor=#ffffff;dashed=0;verticalLabelPosition=bottom;verticalAlign=top;align=center;html=1;fontSize=12;fontStyle=0;aspect=fixed;shape=mxgraph.aws4.resourceIcon;resIcon=mxgraph.aws4.lambda;" vertex="1" parent="5">
                    <mxGeometry x="150" y="90" width="60" height="60" as="geometry"/>
                </mxCell>
                <mxCell id="214" value="S3" style="sketch=0;points=[[0,0,0],[0.25,0,0],[0.5,0,0],[0.75,0,0],[1,0,0],[0,1,0],[0.25,1,0],[0.5,1,0],[0.75,1,0],[1,1,0],[0,0.25,0],[0,0.5,0],[0,0.75,0],[1,0.25,0],[1,0.5,0],[1,0.75,0]];outlineConnect=0;fontColor=#232F3E;fillColor=#7AA116;strokeColor=#ffffff;dashed=0;verticalLabelPosition=bottom;verticalAlign=top;align=center;html=1;fontSize=12;fontStyle=0;aspect=fixed;shape=mxgraph.aws4.resourceIcon;resIcon=mxgraph.aws4.s3;" vertex="1" parent="5">
                    <mxGeometry x="250" y="90" width="60" height="60" as="geometry"/>
                </mxCell>
                <mxCell id="216" style="edgeStyle=none;html=1;exitX=1;exitY=0.5;exitDx=0;exitDy=0;exitPerimeter=0;entryX=0;entryY=0.5;entryDx=0;entryDy=0;entryPerimeter=0;" edge="1" parent="5" source="9" target="213">
                    <mxGeometry relative="1" as="geometry"/>
                </mxCell>
                <mxCell id="217" style="edgeStyle=none;html=1;exitX=1;exitY=0.5;exitDx=0;exitDy=0;exitPerimeter=0;entryX=0;entryY=0.5;entryDx=0;entryDy=0;entryPerimeter=0;" edge="1" parent="5" source="213" target="214">
                    <mxGeometry relative="1" as="geometry"/>
                </mxCell>
                <mxCell id="218" style="edgeStyle=none;html=1;exitX=1;exitY=0.5;exitDx=0;exitDy=0;exitPerimeter=0;entryX=0;entryY=0.5;entryDx=0;entryDy=0;entryPerimeter=0;" edge="1" parent="5" source="214" target="170">
                    <mxGeometry relative="1" as="geometry"/>
                </mxCell>
                <mxCell id="223" value="&lt;span style=&quot;color: rgb(0, 0, 0); text-wrap-mode: nowrap;&quot;&gt;Scheduled Job&lt;/span&gt;&lt;div style=&quot;text-wrap-mode: nowrap;&quot;&gt;12:00&lt;/div&gt;" style="fillColor=none;strokeColor=#5A6C86;verticalAlign=top;fontStyle=0;fontColor=#5A6C86;whiteSpace=wrap;html=1;" vertex="1" parent="5">
                    <mxGeometry x="330" y="42.5" width="210" height="155" as="geometry"/>
                </mxCell>
                <mxCell id="227" style="edgeStyle=orthogonalEdgeStyle;html=1;entryX=0.5;entryY=0;entryDx=0;entryDy=0;entryPerimeter=0;exitX=0.5;exitY=1;exitDx=0;exitDy=0;exitPerimeter=0;startSize=17;endSize=6;sourcePerimeterSpacing=18;jumpStyle=none;" edge="1" parent="5" source="174" target="10">
                    <mxGeometry relative="1" as="geometry">
                        <mxPoint x="587" y="225" as="sourcePoint"/>
                    </mxGeometry>
                </mxCell>
                <mxCell id="230" value="②" style="text;html=1;align=center;verticalAlign=middle;resizable=0;points=[];autosize=1;strokeColor=none;fillColor=none;fontSize=15;" vertex="1" parent="5">
                    <mxGeometry x="160" y="60" width="40" height="30" as="geometry"/>
                </mxCell>
                <mxCell id="231" value="③" style="text;html=1;align=center;verticalAlign=middle;resizable=0;points=[];autosize=1;strokeColor=none;fillColor=none;fontSize=15;" vertex="1" parent="5">
                    <mxGeometry x="410" y="12.5" width="40" height="30" as="geometry"/>
                </mxCell>
                <mxCell id="169" value="⑤" style="text;html=1;align=center;verticalAlign=middle;resizable=0;points=[];autosize=1;strokeColor=none;fillColor=none;fontSize=15;" parent="5" vertex="1">
                    <mxGeometry x="517" y="520" width="40" height="30" as="geometry"/>
                </mxCell>
                <mxCell id="145" value="User" style="shape=actor;whiteSpace=wrap;html=1;verticalAlign=top;labelPosition=center;verticalLabelPosition=bottom;align=center;" parent="1" vertex="1">
                    <mxGeometry x="1470" y="520" width="60" height="70" as="geometry"/>
                </mxCell>
                <mxCell id="154" value="&lt;div style=&quot;text-align: left;&quot;&gt;&lt;span style=&quot;background-color: transparent;&quot;&gt;Request&lt;/span&gt;&lt;/div&gt;&lt;div style=&quot;text-align: left;&quot;&gt;&lt;span style=&quot;background-color: transparent;&quot;&gt;&lt;br&gt;&lt;/span&gt;&lt;/div&gt;&lt;div&gt;&lt;div style=&quot;text-align: left;&quot;&gt;&lt;span style=&quot;background-color: transparent;&quot;&gt;{&lt;/span&gt;&lt;span style=&quot;background-color: transparent;&quot;&gt;&quot;date&quot;: &quot;2025-05-22&quot;,&lt;/span&gt;&lt;/div&gt;&lt;div&gt;&lt;div style=&quot;text-align: left;&quot;&gt;&amp;nbsp; &quot;max_temp&quot;: 28,&lt;/div&gt;&lt;div style=&quot;text-align: left;&quot;&gt;&amp;nbsp; &quot;min_temp&quot;: 10.5,&lt;/div&gt;&lt;div style=&quot;text-align: left;&quot;&gt;&amp;nbsp; &quot;weather&quot;: &quot;曇り&quot;&lt;span style=&quot;background-color: transparent;&quot;&gt;}&lt;/span&gt;&lt;/div&gt;&lt;/div&gt;&lt;/div&gt;" style="text;html=1;align=center;verticalAlign=middle;resizable=0;points=[];autosize=1;strokeColor=none;fillColor=none;" parent="1" vertex="1">
                    <mxGeometry x="1335" y="450" width="140" height="100" as="geometry"/>
                </mxCell>
                <mxCell id="155" value="&lt;div style=&quot;text-align: left;&quot;&gt;Response&lt;/div&gt;&lt;div&gt;&lt;div style=&quot;&quot;&gt;&lt;p style=&quot;text-align: left; margin: 0px; font-variant-numeric: normal; font-variant-east-asian: normal; font-variant-alternates: normal; font-size-adjust: none; font-kerning: auto; font-optical-sizing: auto; font-feature-settings: normal; font-variation-settings: normal; font-variant-position: normal; font-variant-emoji: normal; font-stretch: normal; font-size: 13px; line-height: normal; font-family: &amp;quot;Helvetica Neue&amp;quot;; color: rgb(0, 0, 0); text-wrap-mode: wrap;&quot; class=&quot;p1&quot;&gt;{&lt;span style=&quot;background-color: transparent;&quot;&gt;&quot;body&quot;: {&lt;/span&gt;&lt;span style=&quot;background-color: transparent; text-align: center;&quot;&gt;&quot;predictions&quot;: [&lt;/span&gt;&lt;span style=&quot;background-color: transparent; text-align: center;&quot;&gt;3363.4768&lt;/span&gt;&lt;span style=&quot;background-color: transparent; text-align: center;&quot;&gt;]&lt;/span&gt;&lt;span style=&quot;background-color: transparent; text-align: center;&quot;&gt;}}&lt;/span&gt;&lt;/p&gt;&lt;/div&gt;&lt;/div&gt;" style="text;html=1;align=center;verticalAlign=middle;resizable=0;points=[];autosize=1;strokeColor=none;fillColor=none;" parent="1" vertex="1">
                    <mxGeometry x="1280" y="610" width="240" height="40" as="geometry"/>
                </mxCell>
                <mxCell id="157" value="FastAPI" style="text;html=1;align=center;verticalAlign=middle;resizable=0;points=[];autosize=1;strokeColor=#666666;fillColor=#f5f5f5;fontColor=#333333;" parent="1" vertex="1">
                    <mxGeometry x="1365" y="410" width="70" height="30" as="geometry"/>
                </mxCell>
                <mxCell id="168" value="⑨" style="text;html=1;align=center;verticalAlign=middle;resizable=0;points=[];autosize=1;strokeColor=none;fillColor=none;fontSize=15;" parent="1" vertex="1">
                    <mxGeometry x="1380" y="380" width="40" height="30" as="geometry"/>
                </mxCell>
                <mxCell id="207" value="" style="edgeStyle=none;orthogonalLoop=1;jettySize=auto;html=1;startArrow=classic;startFill=1;endArrow=none;endFill=0;" edge="1" parent="1">
                    <mxGeometry width="100" relative="1" as="geometry">
                        <mxPoint x="1250" y="553.67" as="sourcePoint"/>
                        <mxPoint x="1450" y="553.67" as="targetPoint"/>
                        <Array as="points"/>
                    </mxGeometry>
                </mxCell>
                <mxCell id="219" value="Data Uploader" style="shape=actor;whiteSpace=wrap;html=1;verticalAlign=top;labelPosition=center;verticalLabelPosition=bottom;align=center;" vertex="1" parent="1">
                    <mxGeometry x="70" y="285" width="60" height="70" as="geometry"/>
                </mxCell>
                <mxCell id="220" style="edgeStyle=none;html=1;exitX=0.9;exitY=0.5;exitDx=0;exitDy=0;exitPerimeter=0;entryX=0;entryY=0.5;entryDx=0;entryDy=0;entryPerimeter=0;" edge="1" parent="1" source="219" target="9">
                    <mxGeometry relative="1" as="geometry"/>
                </mxCell>
                <mxCell id="229" value="①" style="text;html=1;align=center;verticalAlign=middle;resizable=0;points=[];autosize=1;strokeColor=none;fillColor=none;fontSize=15;" vertex="1" parent="1">
                    <mxGeometry x="180" y="285" width="40" height="30" as="geometry"/>
                </mxCell>
            </root>
        </mxGraphModel>
    </diagram>
</mxfile>